<svg width="75" height="16" viewBox="0 0 75 16" fill="none" xmlns="http://www.w3.org/2000/svg">
<path d="M10.5155 14.366L-0.000515588 10.461V7.24895L10.5155 3.33295V6.76495L4.16848 8.79995V8.88795L10.5155 10.923V14.366ZM13.5288 15.752V-4.73261e-05H18.3688L22.7138 10.725H22.7908L27.0808 -4.73261e-05H31.9098V15.752H28.0158V8.76695L28.0928 6.48995H28.0158L24.2758 15.752H21.1738L17.4448 6.48995H17.3678L17.4448 8.77795V15.752H13.5288ZM35.0347 15.752V-4.73261e-05H41.5577C43.1563 -4.73261e-05 44.5093 0.472952 45.6167 1.41895C46.7313 2.36495 47.2887 3.63729 47.2887 5.23595C47.2887 6.69529 46.768 7.89795 45.7267 8.84395C44.6853 9.78995 43.347 10.263 41.7117 10.263H36.6407V7.51295H41.1507C41.73 7.51295 42.225 7.32229 42.6357 6.94095C43.0463 6.55229 43.2517 6.05729 43.2517 5.45595C43.2517 4.91329 43.0537 4.45129 42.6577 4.06995C42.269 3.68862 41.796 3.49795 41.2387 3.49795H39.0607V15.752H35.0347ZM43.8677 15.752L39.2917 8.74495L43.5267 8.62395L48.5207 15.752H43.8677ZM53.4683 15.752L58.6053 -4.73261e-05H62.2353L57.1313 15.752H53.4683ZM63.8966 3.33295L74.4126 7.24895V10.45L63.8966 14.366V10.934L70.2326 8.89895V8.81095L63.8966 6.77595V3.33295Z" fill="#646464"/>
</svg>
